bicep_curl
version=1
nRows=409
nColumns=3
inDegrees=yes

# SIMM Motion File Header:
name bicep_curl
datacolumns 3
datarows 409
otherdata 1
range 0.0000 0.4080
endheader
time	/jointset/r_shoulder/r_shoulder_elev/value	/jointset/r_elbow/r_elbow_flex/value
0.0000	0.0000	29.4000
0.0010	0.0000	29.5128
0.0020	0.0000	29.6257
0.0030	0.0000	29.7385
0.0040	0.0000	29.8514
0.0050	0.0000	29.9642
0.0060	0.0000	30.0770
0.0070	0.0000	30.1899
0.0080	0.0000	30.3027
0.0090	0.0000	30.4156
0.0100	0.0000	30.5284
0.0110	0.0000	30.6412
0.0120	0.0000	30.7541
0.0130	0.0000	30.8669
0.0140	0.0000	30.9798
0.0150	0.0000	31.0926
0.0160	0.0000	31.2054
0.0170	0.0000	31.3183
0.0180	0.0000	31.4311
0.0190	0.0000	31.5440
0.0200	0.0000	31.6568
0.0210	0.0000	31.7696
0.0220	0.0000	31.8825
0.0230	0.0000	31.9953
0.0240	0.0000	32.1082
0.0250	0.0000	32.2210
0.0260	0.0000	32.3338
0.0270	0.0000	32.4467
0.0280	0.0000	32.5595
0.0290	0.0000	32.6724
0.0300	0.0000	32.7852
0.0310	0.0000	32.8980
0.0320	0.0000	33.0109
0.0330	0.0000	33.1237
0.0340	0.0000	33.2366
0.0350	0.0000	33.3494
0.0360	0.0000	33.4622
0.0370	0.0000	33.5751
0.0380	0.0000	33.6879
0.0390	0.0000	33.8008
0.0400	0.0000	33.9136
0.0410	0.0000	34.0264
0.0420	0.0000	34.1393
0.0430	0.0000	34.2521
0.0440	0.0000	34.3650
0.0450	0.0000	34.4778
0.0460	0.0000	34.5906
0.0470	0.0000	34.7035
0.0480	0.0000	34.8163
0.0490	0.0000	34.9292
0.0500	0.0000	35.0420
0.0510	0.0000	35.1548
0.0520	0.0000	35.2677
0.0530	0.0000	35.3805
0.0540	0.0000	35.4934
0.0550	0.0000	35.6062
0.0560	0.0000	35.7190
0.0570	0.0000	35.8319
0.0580	0.0000	35.9447
0.0590	0.0000	36.0576
0.0600	0.0000	36.1704
0.0610	0.0000	36.2832
0.0620	0.0000	36.3961
0.0630	0.0000	36.5089
0.0640	0.0000	36.6218
0.0650	0.0000	36.7346
0.0660	0.0000	36.8474
0.0670	0.0000	36.9603
0.0680	0.0000	37.0731
0.0690	0.0000	37.1860
0.0700	0.0000	37.2988
0.0710	0.0000	37.4116
0.0720	0.0000	37.5245
0.0730	0.0000	37.6373
0.0740	0.0000	37.7502
0.0750	0.0000	37.8630
0.0760	0.0000	37.9758
0.0770	0.0000	38.0887
0.0780	0.0000	38.2015
0.0790	0.0000	38.3144
0.0800	0.0000	38.4272
0.0810	0.0000	38.5400
0.0820	0.0000	38.6529
0.0830	0.0000	38.7657
0.0840	0.0000	38.8786
0.0850	0.0000	38.9914
0.0860	0.0000	39.1042
0.0870	0.0000	39.2171
0.0880	0.0000	39.3299
0.0890	0.0000	39.4428
0.0900	0.0000	39.5556
0.0910	0.0000	39.6684
0.0920	0.0000	39.7813
0.0930	0.0000	39.8941
0.0940	0.0000	40.0070
0.0950	0.0000	40.1198
0.0960	0.0000	40.2326
0.0970	0.0000	40.3455
0.0980	0.0000	40.4583
0.0990	0.0000	40.5712
0.1000	0.0000	40.6840
0.1010	0.0000	40.7968
0.1020	0.0000	40.9097
0.1030	0.0000	41.0225
0.1040	0.0000	41.1354
0.1050	0.0000	41.2482
0.1060	0.0000	41.3610
0.1070	0.0000	41.4739
0.1080	0.0000	41.5867
0.1090	0.0000	41.6996
0.1100	0.0000	41.8124
0.1110	0.0000	41.9252
0.1120	0.0000	42.0381
0.1130	0.0000	42.1509
0.1140	0.0000	42.2638
0.1150	0.0000	42.3766
0.1160	0.0000	42.4894
0.1170	0.0000	42.6023
0.1180	0.0000	42.7151
0.1190	0.0000	42.8280
0.1200	0.0000	42.9408
0.1210	0.0000	43.0536
0.1220	0.0000	43.1665
0.1230	0.0000	43.2793
0.1240	0.0000	43.3922
0.1250	0.0000	43.5050
0.1260	0.0000	43.6178
0.1270	0.0000	43.7307
0.1280	0.0000	43.8435
0.1290	0.0000	43.9564
0.1300	0.0000	44.0692
0.1310	0.0000	44.1820
0.1320	0.0000	44.2949
0.1330	0.0000	44.4077
0.1340	0.0000	44.5206
0.1350	0.0000	44.6334
0.1360	0.0000	44.7462
0.1370	0.0000	44.8591
0.1380	0.0000	44.9719
0.1390	0.0000	45.0848
0.1400	0.0000	45.1976
0.1410	0.0000	45.3104
0.1420	0.0000	45.4233
0.1430	0.0000	45.5361
0.1440	0.0000	45.6490
0.1450	0.0000	45.7618
0.1460	0.0000	45.8746
0.1470	0.0000	45.9875
0.1480	0.0000	46.1003
0.1490	0.0000	46.2132
0.1500	0.0000	46.3260
0.1510	0.0000	46.4388
0.1520	0.0000	46.5517
0.1530	0.0000	46.6645
0.1540	0.0000	46.7774
0.1550	0.0000	46.8902
0.1560	0.0000	47.0030
0.1570	0.0000	47.1159
0.1580	0.0000	47.2287
0.1590	0.0000	47.3416
0.1600	0.0000	47.4544
0.1610	0.0000	47.5672
0.1620	0.0000	47.6801
0.1630	0.0000	47.7929
0.1640	0.0000	47.9058
0.1650	0.0000	48.0186
0.1660	0.0000	48.1314
0.1670	0.0000	48.2443
0.1680	0.0000	48.3571
0.1690	0.0000	48.4700
0.1700	0.0000	48.5828
0.1710	0.0000	48.6956
0.1720	0.0000	48.8085
0.1730	0.0000	48.9213
0.1740	0.0000	49.0342
0.1750	0.0000	49.1470
0.1760	0.0000	49.2598
0.1770	0.0000	49.3727
0.1780	0.0000	49.4855
0.1790	0.0000	49.5984
0.1800	0.0000	49.7112
0.1810	0.0000	49.8240
0.1820	0.0000	49.9369
0.1830	0.0000	50.0497
0.1840	0.0000	50.1626
0.1850	0.0000	50.2754
0.1860	0.0000	50.3882
0.1870	0.0000	50.5011
0.1880	0.0000	50.6139
0.1890	0.0000	50.7268
0.1900	0.0000	50.8396
0.1910	0.0000	50.9524
0.1920	0.0000	51.0653
0.1930	0.0000	51.1781
0.1940	0.0000	51.2910
0.1950	0.0000	51.4038
0.1960	0.0000	51.5166
0.1970	0.0000	51.6295
0.1980	0.0000	51.7423
0.1990	0.0000	51.8552
0.2000	0.0000	51.9680
0.2010	0.0000	52.0808
0.2020	0.0000	52.1937
0.2030	0.0000	52.3065
0.2040	0.0000	52.4194
0.2050	0.0000	52.5322
0.2060	0.0000	52.6450
0.2070	0.0000	52.7579
0.2080	0.0000	52.8707
0.2090	0.0000	52.9836
0.2100	0.0000	53.0964
0.2110	0.0000	53.2092
0.2120	0.0000	53.3221
0.2130	0.0000	53.4349
0.2140	0.0000	53.5478
0.2150	0.0000	53.6606
0.2160	0.0000	53.7734
0.2170	0.0000	53.8863
0.2180	0.0000	53.9991
0.2190	0.0000	54.1120
0.2200	0.0000	54.2248
0.2210	0.0000	54.3376
0.2220	0.0000	54.4505
0.2230	0.0000	54.5633
0.2240	0.0000	54.6762
0.2250	0.0000	54.7890
0.2260	0.0000	54.9018
0.2270	0.0000	55.0147
0.2280	0.0000	55.1275
0.2290	0.0000	55.2404
0.2300	0.0000	55.3532
0.2310	0.0000	55.4660
0.2320	0.0000	55.5789
0.2330	0.0000	55.6917
0.2340	0.0000	55.8046
0.2350	0.0000	55.9174
0.2360	0.0000	56.0302
0.2370	0.0000	56.1431
0.2380	0.0000	56.2559
0.2390	0.0000	56.3688
0.2400	0.0000	56.4816
0.2410	0.0000	56.5944
0.2420	0.0000	56.7073
0.2430	0.0000	56.8201
0.2440	0.0000	56.9330
0.2450	0.0000	57.0458
0.2460	0.0000	57.1586
0.2470	0.0000	57.2715
0.2480	0.0000	57.3843
0.2490	0.0000	57.4972
0.2500	0.0000	57.6100
0.2510	0.0000	57.7228
0.2520	0.0000	57.8357
0.2530	0.0000	57.9485
0.2540	0.0000	58.0614
0.2550	0.0000	58.1742
0.2560	0.0000	58.2870
0.2570	0.0000	58.3999
0.2580	0.0000	58.5127
0.2590	0.0000	58.6256
0.2600	0.0000	58.7384
0.2610	0.0000	58.8512
0.2620	0.0000	58.9641
0.2630	0.0000	59.0769
0.2640	0.0000	59.1898
0.2650	0.0000	59.3026
0.2660	0.0000	59.4154
0.2670	0.0000	59.5283
0.2680	0.0000	59.6411
0.2690	0.0000	59.7540
0.2700	0.0000	59.8668
0.2710	0.0000	59.9796
0.2720	0.0000	60.0925
0.2730	0.0000	60.2053
0.2740	0.0000	60.3182
0.2750	0.0000	60.4310
0.2760	0.0000	60.5438
0.2770	0.0000	60.6567
0.2780	0.0000	60.7695
0.2790	0.0000	60.8824
0.2800	0.0000	60.9952
0.2810	0.0000	61.1080
0.2820	0.0000	61.2209
0.2830	0.0000	61.3337
0.2840	0.0000	61.4466
0.2850	0.0000	61.5594
0.2860	0.0000	61.6722
0.2870	0.0000	61.7851
0.2880	0.0000	61.8979
0.2890	0.0000	62.0108
0.2900	0.0000	62.1236
0.2910	0.0000	62.2364
0.2920	0.0000	62.3493
0.2930	0.0000	62.4621
0.2940	0.0000	62.5750
0.2950	0.0000	62.6878
0.2960	0.0000	62.8006
0.2970	0.0000	62.9135
0.2980	0.0000	63.0263
0.2990	0.0000	63.1392
0.3000	0.0000	63.2520
0.3010	0.0000	63.3648
0.3020	0.0000	63.4777
0.3030	0.0000	63.5905
0.3040	0.0000	63.7034
0.3050	0.0000	63.8162
0.3060	0.0000	63.9290
0.3070	0.0000	64.0419
0.3080	0.0000	64.1547
0.3090	0.0000	64.2676
0.3100	0.0000	64.3804
0.3110	0.0000	64.4932
0.3120	0.0000	64.6061
0.3130	0.0000	64.7189
0.3140	0.0000	64.8318
0.3150	0.0000	64.9446
0.3160	0.0000	65.0574
0.3170	0.0000	65.1703
0.3180	0.0000	65.2831
0.3190	0.0000	65.3960
0.3200	0.0000	65.5088
0.3210	0.0000	65.6216
0.3220	0.0000	65.7345
0.3230	0.0000	65.8473
0.3240	0.0000	65.9602
0.3250	0.0000	66.0730
0.3260	0.0000	66.1858
0.3270	0.0000	66.2987
0.3280	0.0000	66.4115
0.3290	0.0000	66.5244
0.3300	0.0000	66.6372
0.3310	0.0000	66.7500
0.3320	0.0000	66.8629
0.3330	0.0000	66.9757
0.3340	0.0000	67.0886
0.3350	0.0000	67.2014
0.3360	0.0000	67.3142
0.3370	0.0000	67.4271
0.3380	0.0000	67.5399
0.3390	0.0000	67.6528
0.3400	0.0000	67.7656
0.3410	0.0000	67.8784
0.3420	0.0000	67.9913
0.3430	0.0000	68.1041
0.3440	0.0000	68.2170
0.3450	0.0000	68.3298
0.3460	0.0000	68.4426
0.3470	0.0000	68.5555
0.3480	0.0000	68.6683
0.3490	0.0000	68.7812
0.3500	0.0000	68.8940
0.3510	0.0000	69.0068
0.3520	0.0000	69.1197
0.3530	0.0000	69.2325
0.3540	0.0000	69.3454
0.3550	0.0000	69.4582
0.3560	0.0000	69.5710
0.3570	0.0000	69.6839
0.3580	0.0000	69.7967
0.3590	0.0000	69.9096
0.3600	0.0000	70.0224
0.3610	0.0000	70.1352
0.3620	0.0000	70.2481
0.3630	0.0000	70.3609
0.3640	0.0000	70.4738
0.3650	0.0000	70.5866
0.3660	0.0000	70.6994
0.3670	0.0000	70.8123
0.3680	0.0000	70.9251
0.3690	0.0000	71.0380
0.3700	0.0000	71.1508
0.3710	0.0000	71.2636
0.3720	0.0000	71.3765
0.3730	0.0000	71.4893
0.3740	0.0000	71.6022
0.3750	0.0000	71.7150
0.3760	0.0000	71.8278
0.3770	0.0000	71.9407
0.3780	0.0000	72.0535
0.3790	0.0000	72.1664
0.3800	0.0000	72.2792
0.3810	0.0000	72.3920
0.3820	0.0000	72.5049
0.3830	0.0000	72.6177
0.3840	0.0000	72.7306
0.3850	0.0000	72.8434
0.3860	0.0000	72.9562
0.3870	0.0000	73.0691
0.3880	0.0000	73.1819
0.3890	0.0000	73.2948
0.3900	0.0000	73.4076
0.3910	0.0000	73.5204
0.3920	0.0000	73.6333
0.3930	0.0000	73.7461
0.3940	0.0000	73.8590
0.3950	0.0000	73.9718
0.3960	0.0000	74.0846
0.3970	0.0000	74.1975
0.3980	0.0000	74.3103
0.3990	0.0000	74.4232
0.4000	0.0000	74.5360
0.4010	0.0000	74.6488
0.4020	0.0000	74.7617
0.4030	0.0000	74.8745
0.4040	0.0000	74.9874
0.4050	0.0000	75.1002
0.4060	0.0000	75.2130
0.4070	0.0000	75.3259
0.4080	0.0000	75.4387
